<svg width="32" height="32" viewBox="0 0 32 32" fill="none" xmlns="http://www.w3.org/2000/svg">
<path d="M8.942 21.644C7.408 19.23 6 16.38 6 14.05C5.97745 13.5253 6.06192 13.0015 6.24828 12.5105C6.43464 12.0195 6.71898 11.5716 7.084 11.194C9.374 8.908 13.482 11.054 17.456 13.132L23.257 7.331C22.5914 6.29777 21.8828 5.29289 21.133 4.319L22.651 3C23.3764 3.92992 24.0649 4.88799 24.715 5.872L28.587 2L30 3.414L25.794 7.621C27.704 10.937 29.04 14.729 26.916 16.849C24.873 18.889 21.384 17.401 17.833 15.581L11.527 21.888C12.1896 22.8488 12.8901 23.7829 13.627 24.688L12.116 26C11.4068 25.1356 10.7281 24.2468 10.081 23.335L5.415 28H30V30H4C3.46957 30 2.96086 29.7893 2.58579 29.4142C2.21071 29.0391 2 28.5304 2 28V2H4V26.587L8.942 21.644ZM25.499 15.435C26.637 14.3 25.785 11.742 24.316 9.098L19.322 14.093C21.941 15.406 24.489 16.443 25.499 15.435ZM15.973 14.614C12.941 13.034 9.677 11.432 8.5 12.607C7.186 13.919 8.526 17.129 10.408 20.179L15.973 14.614Z" fill="black"/>
</svg>
