<svg width="20" height="20" viewBox="0 0 20 20" fill="none" xmlns="http://www.w3.org/2000/svg">
<path fill-rule="evenodd" clip-rule="evenodd" d="M7.37006 4.75009C7.71606 4.75009 7.99606 5.03009 7.99606 5.37509V7.50009C7.99606 7.699 8.07508 7.88976 8.21573 8.03042C8.35639 8.17107 8.54715 8.25009 8.74606 8.25009C8.94498 8.25009 9.13574 8.17107 9.27639 8.03042C9.41705 7.88976 9.49606 7.699 9.49606 7.50009V3.87509C9.49606 3.79301 9.51223 3.71174 9.54364 3.63591C9.57505 3.56008 9.62108 3.49118 9.67912 3.43315C9.73716 3.37511 9.80606 3.32907 9.88189 3.29766C9.95771 3.26625 10.039 3.25009 10.1211 3.25009C10.2031 3.25009 10.2844 3.26625 10.3602 3.29766C10.4361 3.32907 10.505 3.37511 10.563 3.43315C10.621 3.49118 10.6671 3.56008 10.6985 3.63591C10.7299 3.71174 10.7461 3.79301 10.7461 3.87509V7.00009C10.7461 7.199 10.8251 7.38977 10.9657 7.53042C11.1064 7.67107 11.2972 7.75009 11.4961 7.75009C11.695 7.75009 11.8857 7.67107 12.0264 7.53042C12.167 7.38977 12.2461 7.199 12.2461 7.00009V4.87409C12.2462 4.70833 12.3122 4.54941 12.4295 4.43229C12.5468 4.31518 12.7058 4.24945 12.8716 4.24959C13.0373 4.24972 13.1962 4.31569 13.3134 4.433C13.4305 4.5503 13.4962 4.70933 13.4961 4.87509V7.50009C13.4961 7.699 13.5751 7.88976 13.7157 8.03042C13.8564 8.17107 14.0472 8.25009 14.2461 8.25009C14.445 8.25009 14.6357 8.17107 14.7764 8.03042C14.917 7.88976 14.9961 7.699 14.9961 7.50009V6.50009C14.9961 6.43378 15.0224 6.37019 15.0693 6.32331C15.1162 6.27643 15.1798 6.25009 15.2461 6.25009H15.6211C15.9661 6.25009 16.2461 6.53009 16.2461 6.87509V11.5001C16.2461 11.5258 16.2474 11.5515 16.2501 11.5771C16.2301 13.3331 15.5701 14.6011 14.6271 15.4391C13.6561 16.3021 12.3401 16.7501 11.0001 16.7501C8.40406 16.7501 6.60006 15.0421 5.14606 12.6191C5.13808 12.6055 5.12974 12.5922 5.12106 12.5791C4.79341 12.0791 4.47568 11.5727 4.16806 11.0601C3.60006 10.1241 4.18606 8.93609 5.24606 8.77009V10.0001C5.24606 10.199 5.32508 10.3898 5.46573 10.5304C5.60639 10.6711 5.79715 10.7501 5.99606 10.7501C6.19498 10.7501 6.38574 10.6711 6.52639 10.5304C6.66705 10.3898 6.74606 10.199 6.74606 10.0001V5.37509C6.74606 5.03009 7.02506 4.75009 7.37006 4.75009ZM3.86706 13.4011C3.52989 12.8865 3.20283 12.3654 2.88606 11.8381C1.69506 9.87309 3.04606 7.43609 5.24606 7.26009V5.37509C5.24583 5.03682 5.32635 4.70339 5.48094 4.40252C5.63552 4.10165 5.8597 3.84202 6.13483 3.64523C6.40996 3.44845 6.72809 3.32019 7.06277 3.27111C7.39746 3.22204 7.73902 3.25357 8.05906 3.36309C8.16398 2.94127 8.39567 2.56175 8.72292 2.27566C9.05017 1.98957 9.45724 1.81066 9.8893 1.76304C10.3214 1.71542 10.7576 1.80138 11.1393 2.00934C11.521 2.21729 11.8298 2.53724 12.0241 2.92609C12.3391 2.78902 12.6828 2.7304 13.0255 2.75526C13.3682 2.78012 13.6997 2.88771 13.9917 3.06881C14.2838 3.24992 14.5275 3.49913 14.7021 3.79508C14.8766 4.09104 14.9768 4.42491 14.9941 4.76809C15.0771 4.75609 15.1611 4.75009 15.2471 4.75009H15.6221C16.7951 4.75009 17.7471 5.70109 17.7471 6.87509V11.4191C17.7498 11.446 17.7512 11.473 17.7511 11.5001C17.7511 13.7041 16.9171 15.4111 15.6241 16.5601C14.3451 17.6981 12.6611 18.2501 11.0011 18.2501C7.60606 18.2501 5.41106 15.9701 3.86706 13.4011Z" fill="black"/>
<path fill-rule="evenodd" clip-rule="evenodd" d="M3.44301 13.669C3.10422 13.1514 2.7755 12.6273 2.45701 12.097C1.15001 9.94103 2.46701 7.31203 4.74601 6.82803V5.37503C4.74594 4.99943 4.82647 4.62819 4.98217 4.28638C5.13787 3.94457 5.36511 3.64015 5.64854 3.39369C5.93197 3.14723 6.26499 2.96446 6.62511 2.85773C6.98523 2.75101 7.36406 2.7228 7.73601 2.77503C7.92747 2.35967 8.22413 2.00154 8.59661 1.73613C8.96908 1.47071 9.40444 1.30722 9.85954 1.26185C10.3147 1.21648 10.7737 1.29081 11.1913 1.47747C11.6088 1.66413 11.9703 1.95664 12.24 2.32603C12.9168 2.15999 13.6318 2.26935 14.2281 2.63009C14.8243 2.99083 15.253 3.57346 15.42 4.25003H15.62C15.9648 4.2499 16.3063 4.3177 16.6249 4.44956C16.9435 4.58142 17.233 4.77475 17.4768 5.01852C17.7207 5.26229 17.9141 5.55171 18.0461 5.87025C18.1781 6.1888 18.246 6.53023 18.246 6.87503V11.396C18.249 11.43 18.25 11.466 18.25 11.5C18.25 13.84 17.36 15.685 15.956 16.934C14.573 18.163 12.766 18.75 11 18.75C7.34201 18.75 5.01701 16.282 3.44301 13.669ZM3.86601 13.401C3.52884 12.8865 3.20177 12.3654 2.88501 11.838C1.69401 9.87303 3.04501 7.43603 5.24501 7.26003V5.37503C5.24478 5.03677 5.3253 4.70334 5.47989 4.40246C5.63447 4.10159 5.85865 3.84196 6.13378 3.64518C6.4089 3.44839 6.72704 3.32013 7.06172 3.27105C7.3964 3.22198 7.73797 3.25351 8.05801 3.36303C8.16245 2.94083 8.39393 2.56084 8.72119 2.27437C9.04845 1.9879 9.45573 1.80875 9.88804 1.7611C10.3203 1.71346 10.7569 1.79961 11.1387 2.00793C11.5205 2.21625 11.8291 2.53671 12.023 2.92603C12.3381 2.78921 12.6817 2.73078 13.0243 2.75575C13.3669 2.78072 13.6984 2.88834 13.9903 3.0694C14.2822 3.25046 14.5259 3.49956 14.7006 3.79539C14.8752 4.09121 14.9755 4.42495 14.993 4.76803C15.076 4.75603 15.16 4.75003 15.246 4.75003H15.621C16.794 4.75003 17.746 5.70103 17.746 6.87503V11.419C17.7488 11.4459 17.7501 11.473 17.75 11.5C17.75 13.704 16.916 15.411 15.623 16.56C14.344 17.698 12.66 18.25 11 18.25C7.60501 18.25 5.41001 15.97 3.86601 13.401Z" fill="black"/>
</svg>
