<svg width="24" height="24" viewBox="0 0 24 24" fill="none" xmlns="http://www.w3.org/2000/svg">
<path d="M2 22L3 21M3 21H6L15 12M3 21V18L12 9" stroke="black" stroke-width="2" stroke-linecap="round" stroke-linejoin="round"/>
<path d="M15 5.99996L18.4 2.59996C18.7978 2.20213 19.3373 1.97864 19.9 1.97864C20.4626 1.97864 21.0021 2.20213 21.4 2.59996C21.7978 2.99778 22.0213 3.53735 22.0213 4.09996C22.0213 4.66257 21.7978 5.20213 21.4 5.59996L18 8.99996L18.4 9.39996C18.5969 9.59694 18.7532 9.83079 18.8598 10.0882C18.9664 10.3455 19.0213 10.6214 19.0213 10.9C19.0213 11.1785 18.9664 11.4544 18.8598 11.7118C18.7532 11.9691 18.5969 12.203 18.4 12.4C18.203 12.5969 17.9691 12.7532 17.7118 12.8598C17.4544 12.9664 17.1785 13.0213 16.9 13.0213C16.6214 13.0213 16.3455 12.9664 16.0882 12.8598C15.8308 12.7532 15.5969 12.5969 15.4 12.4L11.6 8.59996C11.403 8.40298 11.2467 8.16912 11.1401 7.91175C11.0335 7.65438 10.9786 7.37853 10.9786 7.09996C10.9786 6.82138 11.0335 6.54553 11.1401 6.28816C11.2467 6.03079 11.403 5.79694 11.6 5.59996C11.7969 5.40298 12.0308 5.24672 12.2882 5.14011C12.5455 5.03351 12.8214 4.97864 13.1 4.97864C13.3785 4.97864 13.6544 5.03351 13.9118 5.14011C14.1691 5.24672 14.403 5.40298 14.6 5.59996L15 5.99996Z" stroke="black" stroke-width="2" stroke-linecap="round" stroke-linejoin="round"/>
</svg>
